<?xml version="1.0" encoding="UTF-8"?>
<svg width="201px" height="259px" viewBox="0 0 201 259" version="1.1" xmlns="http://www.w3.org/2000/svg" xmlns:xlink="http://www.w3.org/1999/xlink">
    <!-- Generator: Sketch 57.1 (83088) - https://sketch.com -->
    <title>Artboard</title>
    <desc>Created with Sketch.</desc>
    <g id="Artboard" stroke="none" stroke-width="1" fill="none" fill-rule="evenodd">
        <g id="icon" transform="translate(10.000000, 16.000000)" fill-rule="nonzero">
            <path d="M116.962552,144.328988 C121.126942,137.369803 127.249926,133.804647 135.369535,133.709576 C143.489145,133.614505 147.58698,129.478924 147.720089,121.340861 C147.834181,113.240826 151.361553,107.118265 158.321218,102.973176 C165.299898,98.809074 166.811629,93.209402 162.837394,86.117118 C158.882174,79.0438481 158.882174,71.9705783 162.837394,64.8782943 C166.811629,57.8050244 165.309406,52.2148595 158.321218,48.0507571 C151.361553,43.8771476 147.824674,37.7640932 147.720089,29.62603 C147.58698,21.5259952 143.489145,17.390414 135.369535,17.2953432 C127.249926,17.1812582 121.126942,13.6351162 116.962552,6.67593135 C112.798163,-0.30226767 107.198104,-1.81389389 100.124346,2.16006686 C93.0505885,6.11501344 85.9578151,6.11501344 78.8840572,2.16006686 C71.8007915,-1.80438681 66.2007332,-0.30226767 62.0363434,6.67593135 C57.8814614,13.6446233 51.7489697,17.1907653 43.6388682,17.2953432 C35.5382744,17.390414 31.4214234,21.5259952 31.3073305,29.62603 C31.1742222,37.7640932 27.646851,43.8676406 20.6871859,48.0507571 C13.7085054,52.2148595 12.1777594,57.7955173 16.1710098,64.8782943 C20.1452448,71.9705783 20.1452448,79.0438481 16.1710098,86.117118 C12.1777594,93.209402 13.6989976,98.8185811 20.6871859,102.973176 C27.646851,107.118265 31.1837299,113.240826 31.3073305,121.340861 C31.4214234,129.469417 35.5382744,133.614505 43.6388682,133.709576 C51.7584774,133.804647 57.8814614,137.369803 62.0458512,144.328988 C66.2102409,151.307187 71.8102993,152.818813 78.8840572,148.825838 C85.9578151,144.90892 93.0505885,144.90892 100.124346,148.825838 C107.198104,152.809306 112.80767,151.307187 116.962552,144.328988 Z M89.5232173,119.924306 C64.9742348,119.924306 45.0840445,100.035488 45.0840445,75.4881991 C45.0840445,50.9599246 64.9742348,31.0711067 89.5232173,31.0711067 C114.053184,31.0711067 133.943375,50.9599246 133.943375,75.4881991 C133.943375,100.035488 114.053184,119.924306 89.5232173,119.924306 Z" id="Shape" fill="#F9BB0B"></path>
            <path d="M42.8289733,139.984524 C34.3294334,139.984524 33.1936374,136 33.1936374,136 L0,201.706516 L26.6154857,198.694292 L41.3335086,221 C41.3335086,221 72,156.561287 72,156.990243 C56.1083213,156.589884 62.4309189,140.41348 42.8289733,139.984524 Z" id="Path" fill="#F15334"></path>
            <path d="M145.308422,139 C121.00039,141.533197 125.943592,147.544813 120.383676,152.214213 C113.988822,159.010363 106,157.677599 106,157.677599 L143.524695,222 L152.756434,198.180389 L179,201.592643 L145.308422,139 Z" id="Path" fill="#F15334"></path>
            <polygon id="Path" fill="#AE6DC9" points="98.2613636 65.7319502 89 47 79.7291667 65.7319502 59 68.7593361 73.9810606 83.3570124 70.4488636 104 89 94.2650622 107.551136 104 104.018939 83.3570124 119 68.7593361"></polygon>
        </g>
    </g>
</svg>